<svg width="650" height="124" viewBox="0 0 650 124" fill="none" xmlns="http://www.w3.org/2000/svg">
<g filter="url(#filter0_d_73_297)">
<g filter="url(#filter1_d_73_297)">
<rect x="25" y="10" width="600" height="74" rx="5" fill="#121212"/>
</g>
<path d="M62.4336 52H61.02V47.0708H55.644V52H54.2378V41.3359H55.644V45.9209H61.02V41.3359H62.4336V52ZM69.6113 52C69.5332 51.8438 69.4697 51.5654 69.4209 51.165C68.791 51.8193 68.0391 52.1465 67.165 52.1465C66.3838 52.1465 65.7417 51.9268 65.2388 51.4873C64.7407 51.043 64.4917 50.4814 64.4917 49.8027C64.4917 48.9775 64.8042 48.3379 65.4292 47.8838C66.0591 47.4248 66.9429 47.1953 68.0806 47.1953H69.3989V46.5728C69.3989 46.0991 69.2573 45.7231 68.9741 45.4448C68.6909 45.1616 68.2734 45.02 67.7217 45.02C67.2383 45.02 66.833 45.1421 66.5059 45.3862C66.1787 45.6304 66.0151 45.9258 66.0151 46.2725H64.6528C64.6528 45.877 64.792 45.4961 65.0703 45.1299C65.3535 44.7588 65.7344 44.4658 66.2129 44.251C66.6963 44.0361 67.2261 43.9287 67.8022 43.9287C68.7153 43.9287 69.4307 44.1582 69.9482 44.6172C70.4658 45.0713 70.7344 45.6987 70.7539 46.4995V50.147C70.7539 50.8745 70.8467 51.4531 71.0322 51.8828V52H69.6113ZM67.3628 50.9673C67.7876 50.9673 68.1904 50.8574 68.5713 50.6377C68.9521 50.418 69.228 50.1323 69.3989 49.7808V48.1548H68.3369C66.6768 48.1548 65.8467 48.6406 65.8467 49.6123C65.8467 50.0371 65.9883 50.3691 66.2715 50.6084C66.5547 50.8477 66.9185 50.9673 67.3628 50.9673ZM79.3599 52H78.0049V45.1958H74.3574V52H72.9951V44.0752H79.3599V52ZM86.6621 44.0752H88.0171V52H86.6621V46.2212L83.0073 52H81.6523V44.0752H83.0073V49.8613L86.6621 44.0752ZM91.6719 44.0752V50.894H94.5723V44.0752H95.9272V50.894H98.8203V44.0752H100.183V52H90.3096V44.0752H91.6719ZM107.448 44.0752H108.803V52H107.448V46.2212L103.793 52H102.438V44.0752H103.793V49.8613L107.448 44.0752ZM116.867 45.1738H114.208V52H112.854V45.1738H110.246V44.0752H116.867V45.1738ZM120.888 52.1465C119.814 52.1465 118.94 51.7949 118.266 51.0918C117.592 50.3838 117.255 49.439 117.255 48.2573V48.0083C117.255 47.2222 117.404 46.5215 117.702 45.9062C118.005 45.2861 118.425 44.8027 118.962 44.4561C119.504 44.1045 120.09 43.9287 120.72 43.9287C121.75 43.9287 122.551 44.2681 123.122 44.9468C123.693 45.6255 123.979 46.5972 123.979 47.8618V48.4258H118.61C118.63 49.207 118.857 49.8394 119.292 50.3228C119.731 50.8013 120.288 51.0405 120.961 51.0405C121.44 51.0405 121.845 50.9429 122.177 50.7476C122.509 50.5522 122.8 50.2935 123.049 49.9712L123.876 50.6157C123.212 51.6362 122.216 52.1465 120.888 52.1465ZM120.72 45.042C120.173 45.042 119.714 45.2422 119.343 45.6426C118.972 46.0381 118.742 46.5947 118.654 47.3125H122.624V47.21C122.585 46.5215 122.399 45.9893 122.067 45.6133C121.735 45.2324 121.286 45.042 120.72 45.042ZM135.258 52H133.896V49.1289C133.3 49.2852 132.69 49.3633 132.065 49.3633C131.074 49.3633 130.317 49.1094 129.794 48.6016C129.277 48.0938 129.013 47.3711 129.003 46.4336V44.0679H130.358V46.4775C130.383 47.6592 130.952 48.25 132.065 48.25C132.69 48.25 133.3 48.1719 133.896 48.0156V44.0752H135.258V52ZM143.322 45.1738H140.664V52H139.309V45.1738H136.701V44.0752H143.322V45.1738ZM143.974 47.9644C143.974 47.188 144.125 46.4897 144.428 45.8696C144.736 45.2495 145.161 44.771 145.703 44.4341C146.25 44.0972 146.872 43.9287 147.57 43.9287C148.649 43.9287 149.521 44.3022 150.185 45.0493C150.854 45.7964 151.188 46.79 151.188 48.0303V48.1255C151.188 48.897 151.04 49.5903 150.742 50.2056C150.449 50.8159 150.026 51.292 149.475 51.6338C148.928 51.9756 148.298 52.1465 147.585 52.1465C146.511 52.1465 145.639 51.7729 144.97 51.0259C144.306 50.2788 143.974 49.29 143.974 48.0596V47.9644ZM145.336 48.1255C145.336 49.0044 145.539 49.71 145.944 50.2422C146.354 50.7744 146.901 51.0405 147.585 51.0405C148.273 51.0405 148.82 50.772 149.226 50.2349C149.631 49.6929 149.833 48.936 149.833 47.9644C149.833 47.0952 149.626 46.3921 149.211 45.855C148.801 45.313 148.254 45.042 147.57 45.042C146.901 45.042 146.362 45.3081 145.952 45.8403C145.542 46.3726 145.336 47.1343 145.336 48.1255ZM155.708 48.0229H152.133V46.917H155.708V48.0229ZM163.508 52H162.153V48.6162H158.513V52H157.15V44.0752H158.513V47.5103H162.153V44.0752H163.508V52ZM170.817 44.0752H172.172V52H170.817V46.2212L167.163 52H165.808V44.0752H167.163V49.8613L170.817 44.0752ZM177.827 44.5293C178.823 44.5293 179.619 44.8638 180.214 45.5327C180.815 46.1968 181.115 47.0732 181.115 48.1621V48.2866C181.115 49.0337 180.971 49.7026 180.683 50.2935C180.395 50.8794 179.98 51.3359 179.438 51.6631C178.901 51.9854 178.281 52.1465 177.578 52.1465C176.513 52.1465 175.656 51.7925 175.007 51.0845C174.357 50.3716 174.033 49.417 174.033 48.2207V47.5615C174.033 45.8965 174.34 44.5732 174.956 43.5918C175.576 42.6104 176.489 42.0122 177.695 41.7974C178.378 41.6753 178.84 41.5264 179.079 41.3506C179.318 41.1748 179.438 40.9331 179.438 40.6255H180.551C180.551 41.2358 180.412 41.7119 180.134 42.0537C179.86 42.3955 179.421 42.6372 178.815 42.7788L177.805 43.0059C176.999 43.1963 176.394 43.5186 175.988 43.9727C175.588 44.4219 175.327 45.0225 175.205 45.7744C175.922 44.9443 176.796 44.5293 177.827 44.5293ZM177.563 45.6426C176.899 45.6426 176.372 45.8672 175.981 46.3164C175.59 46.7607 175.395 47.3784 175.395 48.1694V48.2866C175.395 49.1362 175.59 49.8101 175.981 50.3081C176.376 50.8013 176.909 51.0479 177.578 51.0479C178.251 51.0479 178.784 50.7988 179.174 50.3008C179.565 49.8027 179.76 49.0752 179.76 48.1182C179.76 47.3711 179.562 46.7729 179.167 46.3237C178.776 45.8696 178.242 45.6426 177.563 45.6426ZM185.231 50.0151L187.077 44.0752H188.527L185.341 53.2231C184.848 54.5415 184.064 55.2007 182.99 55.2007L182.734 55.1787L182.229 55.0835V53.9849L182.595 54.0142C183.054 54.0142 183.41 53.9214 183.664 53.7358C183.923 53.5503 184.135 53.2109 184.301 52.7178L184.602 51.9121L181.774 44.0752H183.254L185.231 50.0151ZM189.267 50.894L189.736 50.3154C190.263 49.6318 190.563 48.6064 190.637 47.2393L190.761 44.0752H195.866V50.894H196.884V54.3291H195.529V52H190V54.3291H188.645L188.652 50.894H189.267ZM190.871 50.894H194.511V45.3276H192.072L191.992 47.2173C191.909 48.7944 191.535 50.02 190.871 50.894ZM199.865 46.8071H201.923C202.822 46.8169 203.532 47.0513 204.055 47.5103C204.577 47.9692 204.838 48.5918 204.838 49.3779C204.838 50.1689 204.57 50.8037 204.033 51.2822C203.496 51.7607 202.773 52 201.865 52H198.51V44.0752H199.865V46.8071ZM199.865 47.9131V50.894H201.879C202.387 50.894 202.78 50.7646 203.059 50.5059C203.337 50.2422 203.476 49.8833 203.476 49.4292C203.476 48.9897 203.339 48.6309 203.066 48.3525C202.797 48.0693 202.419 47.9229 201.931 47.9131H199.865Z" fill="#D2D2D2"/>
<rect x="561" y="25" width="44" height="44" rx="22" fill="#3137C9"/>
<path d="M592.648 46.9482L576.863 39.6626C576.611 39.5485 576.311 39.6165 576.136 39.8326C575.96 40.0488 575.954 40.356 576.122 40.5782L581.313 47.4995L576.122 54.4207C575.954 54.6429 575.96 54.9513 576.135 55.1663C576.253 55.3132 576.429 55.3921 576.608 55.3921C576.694 55.3921 576.78 55.3739 576.861 55.3363L592.647 48.0507C592.863 47.9512 593 47.7362 593 47.4995C593 47.2627 592.863 47.0477 592.648 46.9482Z" fill="white"/>
<rect x="502" y="25" width="44" height="44" rx="22" fill="#EBEBEB"/>
<g clip-path="url(#clip0_73_297)">
<path d="M525.944 45.7429C527.018 46.8169 527.018 48.5581 525.944 49.6321C524.87 50.7061 523.129 50.7061 522.055 49.6321C520.981 48.5581 520.981 46.8169 522.055 45.7429C523.129 44.6689 524.87 44.6689 525.944 45.7429" fill="#989898"/>
<path d="M532.25 40.1248H530.35L528.974 37.3747H519.025L517.65 40.1262L515.753 40.1295C514.24 40.1322 513.009 41.3649 513.007 42.8783L513 53.8746C513 55.3913 514.233 56.6253 515.75 56.6253H532.25C533.767 56.6253 535 55.392 535 53.8752V42.8749C535 41.3582 533.767 40.1248 532.25 40.1248V40.1248ZM524 53.1877C520.967 53.1877 518.499 50.7203 518.499 47.6875C518.499 44.6547 520.967 42.1873 524 42.1873C527.032 42.1873 529.5 44.6547 529.5 47.6875C529.5 50.7203 527.032 53.1877 524 53.1877V53.1877Z" fill="#989898"/>
</g>
</g>
<defs>
<filter id="filter0_d_73_297" x="21" y="10" width="608" height="82" filterUnits="userSpaceOnUse" color-interpolation-filters="sRGB">
<feFlood flood-opacity="0" result="BackgroundImageFix"/>
<feColorMatrix in="SourceAlpha" type="matrix" values="0 0 0 0 0 0 0 0 0 0 0 0 0 0 0 0 0 0 127 0" result="hardAlpha"/>
<feOffset dy="4"/>
<feGaussianBlur stdDeviation="2"/>
<feComposite in2="hardAlpha" operator="out"/>
<feColorMatrix type="matrix" values="0 0 0 0 0 0 0 0 0 0 0 0 0 0 0 0 0 0 0.25 0"/>
<feBlend mode="normal" in2="BackgroundImageFix" result="effect1_dropShadow_73_297"/>
<feBlend mode="normal" in="SourceGraphic" in2="effect1_dropShadow_73_297" result="shape"/>
</filter>
<filter id="filter1_d_73_297" x="0" y="0" width="650" height="124" filterUnits="userSpaceOnUse" color-interpolation-filters="sRGB">
<feFlood flood-opacity="0" result="BackgroundImageFix"/>
<feColorMatrix in="SourceAlpha" type="matrix" values="0 0 0 0 0 0 0 0 0 0 0 0 0 0 0 0 0 0 127 0" result="hardAlpha"/>
<feOffset dy="15"/>
<feGaussianBlur stdDeviation="12.5"/>
<feColorMatrix type="matrix" values="0 0 0 0 0 0 0 0 0 0 0 0 0 0 0 0 0 0 0.45 0"/>
<feBlend mode="normal" in2="BackgroundImageFix" result="effect1_dropShadow_73_297"/>
<feBlend mode="normal" in="SourceGraphic" in2="effect1_dropShadow_73_297" result="shape"/>
</filter>
<clipPath id="clip0_73_297">
<rect width="22" height="22" fill="white" transform="translate(513 36)"/>
</clipPath>
</defs>
</svg>
